<?xml version="1.0" encoding="UTF-8"?>
<svg width="32px" height="32px" viewBox="0 0 32 32" version="1.1" xmlns="http://www.w3.org/2000/svg" xmlns:xlink="http://www.w3.org/1999/xlink">
    <!-- Generator: Sketch 43.2 (39069) - http://www.bohemiancoding.com/sketch -->
    <title>svg+xml</title>
    <desc>Created with Sketch.</desc>
    <defs></defs>
    <g id="Page-1" stroke="none" stroke-width="1" fill="none" fill-rule="evenodd">
        <path d="M29.5,7.5 L29.5,16.5" id="Line" stroke="#FFFFFF" stroke-linecap="square"></path>
        <g id="svg+xml" transform="translate(0.000000, 1.000000)">
            <ellipse id="Oval" stroke="#FFFFFF" stroke-width="2" cx="22.131358" cy="5.59605634" rx="5.60592593" ry="5.59605634"></ellipse>
            <ellipse id="Oval" stroke="#FFFFFF" cx="29.2345679" cy="5.59605634" rx="1" ry="1"></ellipse>
            <path d="M31.225679,21.1064789 C30.6330864,20.4952113 29.1496296,20.3078873 28.6992593,21.2169014 C28.6006254,21.4826444 28.661057,21.7812165 28.8553086,21.9878873 C29.1160494,22.2915493 29.4577778,22.084507 29.7817284,22.1653521 C30.342716,22.3053521 30.1767901,23.1966197 29.9654321,23.5673239 C29.2918519,24.6853521 27.7511111,24.9476056 26.5955556,24.7188732 C25.522963,24.511831 24.6202469,23.8374648 23.7846914,23.1670423 C22.6706173,22.2777465 21.382716,20.9802817 19.9032099,20.8560563 C19.0899299,20.8050269 18.2819432,21.0180816 17.6,21.4633803 C17.2528483,21.6816223 16.9314739,21.9382692 16.6419753,22.2284507 C16.3990123,22.4670423 16.2054321,22.7056338 15.9782716,22.715493 C15.7511111,22.7253521 15.5575309,22.4670423 15.3145679,22.2284507 C15.0250694,21.9382692 14.7036949,21.6816223 14.3565432,21.4633803 C13.6746,21.0180816 12.8666133,20.8050269 12.0533333,20.8560563 C10.5738272,20.9822535 9.28790123,22.2777465 8.17185185,23.1670423 C7.32839506,23.8394366 6.43358025,24.511831 5.36098765,24.7188732 C4.2054321,24.9377465 2.66271605,24.6833803 1.99111111,23.5673239 C1.77185185,23.1985915 1.61382716,22.3053521 2.17481481,22.1653521 C2.49876543,22.084507 2.84049383,22.2935211 3.10123457,21.9878873 C3.29548617,21.7812165 3.35591785,21.4826444 3.25728395,21.2169014 C2.80691358,20.3078873 1.3254321,20.4971831 0.730864198,21.1064789 C0.288571853,21.5422835 0.0281259199,22.1291927 0.00197530864,22.7490141 C0.0125310524,24.0421757 0.54777292,25.2758314 1.4854321,26.168169 C2.76345679,27.3611268 4.53135802,27.7890141 6.20839506,27.9428169 C8.70320988,28.1616901 11.3204938,27.44 13.517037,26.2411268 C14.2241975,25.8467606 15.097284,25.0107042 15.9782716,24.9456338 C16.8493827,25.0107042 17.7303704,25.8566197 18.4395062,26.2411268 C20.6380247,27.44 23.2553086,28.1597183 25.7481481,27.9428169 C27.4251852,27.7949296 29.1930864,27.3670423 30.4711111,26.168169 C31.4087703,25.2758314 31.9440122,24.0421757 31.9545679,22.7490141 C31.9284173,22.1291927 31.6679714,21.5422835 31.225679,21.1064789 L31.225679,21.1064789 Z" id="Shape" fill="#FFFFFF" fill-rule="nonzero"></path>
        </g>
    </g>
</svg>
